<svg xmlns="http://www.w3.org/2000/svg" xmlns:xlink="http://www.w3.org/1999/xlink" width="299" height="103" viewBox="27 27 244 27">
  <defs>
    <clipPath id="clip-formol-Baseline-logo">
      <rect width="299" height="103"/>
    </clipPath>
  </defs>
  <g id="formol-Baseline-logo" clip-path="url(#clip-formol-Baseline-logo)">
    <g id="Groupe_15" data-name="Groupe 15" transform="translate(-669.117 -338.499)">
      <path id="Tracé_1" data-name="Tracé 1" d="M2.243,24.517a2.368,2.368,0,0,1-1.635-.545,2.076,2.076,0,0,1,.021-2.956,2.62,2.62,0,0,1,1.74-.545H4.214v-.608a1.033,1.033,0,0,0-.335-.839,1.364,1.364,0,0,0-.964-.294,1.69,1.69,0,0,0-.9.231.826.826,0,0,0-.419.629H.335a2.042,2.042,0,0,1,.818-1.426,2.94,2.94,0,0,1,1.824-.524,2.736,2.736,0,0,1,1.866.608,2.048,2.048,0,0,1,.692,1.635v4.55H4.256V23.217h-.21l.21-.252a1.421,1.421,0,0,1-.545,1.153,2.3,2.3,0,0,1-1.468.419Zm.377-1.006a1.844,1.844,0,0,0,1.153-.356,1.142,1.142,0,0,0,.461-.923v-.881H2.411a1.083,1.083,0,0,0-.8.273,1.027,1.027,0,0,0-.294.755.989.989,0,0,0,.356.8,1.511,1.511,0,0,0,.964.294Z" transform="translate(697.61 386.336)" fill="#190e4f"/>
      <path id="Tracé_2" data-name="Tracé 2" d="M3.45,24.391V17.745h1.3v1.279h.314l-.314.294a1.613,1.613,0,0,1,.461-1.237,1.842,1.842,0,0,1,1.3-.44,2.084,2.084,0,0,1,1.593.629,2.378,2.378,0,0,1,.587,1.719v4.424h-1.3V20.135a1.367,1.367,0,0,0-.356-1.006,1.3,1.3,0,0,0-.964-.356,1.233,1.233,0,0,0-.964.377,1.529,1.529,0,0,0-.356,1.069v4.193H3.45Z" transform="translate(701.393 386.336)" fill="#190e4f"/>
      <path id="Tracé_3" data-name="Tracé 3" d="M12.734,24.5a3.043,3.043,0,0,1-1.426-.314,2.128,2.128,0,0,1-.923-.9,2.85,2.85,0,0,1-.335-1.363V20.2a2.578,2.578,0,0,1,.335-1.363,2.2,2.2,0,0,1,.923-.881,3.043,3.043,0,0,1,1.426-.314,3.043,3.043,0,0,1,1.426.314,2.2,2.2,0,0,1,.923.881,2.789,2.789,0,0,1,.335,1.363v1.719a2.578,2.578,0,0,1-.335,1.363,2.383,2.383,0,0,1-.923.9A3.043,3.043,0,0,1,12.734,24.5Zm0-1.153a1.377,1.377,0,0,0,1.027-.377,1.418,1.418,0,0,0,.356-1.048V20.2a1.529,1.529,0,0,0-.356-1.069,1.367,1.367,0,0,0-1.027-.356,1.455,1.455,0,0,0-1.027.356,1.414,1.414,0,0,0-.377,1.069v1.719a1.306,1.306,0,0,0,1.4,1.426Z" transform="translate(708.631 386.336)" fill="#190e4f"/>
      <path id="Tracé_4" data-name="Tracé 4" d="M13.4,26.583V17.756h1.3v1.279h.273l-.273.294a1.626,1.626,0,0,1,.482-1.237A1.907,1.907,0,0,1,16.5,17.63,2.042,2.042,0,0,1,18.1,18.3a2.623,2.623,0,0,1,.608,1.824v1.866a2.949,2.949,0,0,1-.273,1.342,2.227,2.227,0,0,1-.755.881,2.136,2.136,0,0,1-1.174.314,1.762,1.762,0,0,1-1.3-.461,1.566,1.566,0,0,1-.5-1.237l.273.294h-.294l.042,1.551v1.908h-1.3Zm2.642-3.208A1.36,1.36,0,0,0,17.048,23a1.438,1.438,0,0,0,.356-1.069v-1.74a1.529,1.529,0,0,0-.356-1.069,1.3,1.3,0,0,0-1.006-.377,1.28,1.28,0,0,0-.985.377,1.418,1.418,0,0,0-.356,1.048v1.74a1.474,1.474,0,0,0,.356,1.048,1.311,1.311,0,0,0,.985.377Z" transform="translate(712.305 386.325)" fill="#190e4f"/>
      <path id="Tracé_5" data-name="Tracé 5" d="M16.711,25.817v-1.2h2.327V20.345H17V19.17H20.3v5.472h2.139v1.2H16.69Zm2.83-7.8a1,1,0,0,1-.671-.231.86.86,0,0,1,0-1.216,1.091,1.091,0,0,1,1.342,0,.776.776,0,0,1,.252.608.807.807,0,0,1-.252.608A1,1,0,0,1,19.541,18.017Z" transform="translate(715.913 384.911)" fill="#190e4f"/>
      <path id="Tracé_6" data-name="Tracé 6" d="M20.03,24.391V17.745h1.3v1.279h.314l-.314.294a1.613,1.613,0,0,1,.461-1.237,1.842,1.842,0,0,1,1.3-.44,2.084,2.084,0,0,1,1.593.629,2.378,2.378,0,0,1,.587,1.719v4.424h-1.3V20.135a1.367,1.367,0,0,0-.356-1.006,1.3,1.3,0,0,0-.964-.356,1.233,1.233,0,0,0-.964.377,1.529,1.529,0,0,0-.356,1.069v4.193h-1.3Z" transform="translate(719.575 386.336)" fill="#190e4f"/>
      <path id="Tracé_7" data-name="Tracé 7" d="M23.341,25.817v-1.2h2.327V20.345H23.634V19.17h3.292v5.472h2.139v1.2H23.32Zm2.83-7.8a1,1,0,0,1-.671-.231.86.86,0,0,1,0-1.216,1.091,1.091,0,0,1,1.342,0,.776.776,0,0,1,.252.608.807.807,0,0,1-.252.608A1,1,0,0,1,26.171,18.017Z" transform="translate(723.183 384.911)" fill="#190e4f"/>
      <path id="Tracé_8" data-name="Tracé 8" d="M29.314,24.5a3.043,3.043,0,0,1-1.426-.314,2.128,2.128,0,0,1-.923-.9,2.85,2.85,0,0,1-.335-1.363V20.2a2.578,2.578,0,0,1,.335-1.363,2.2,2.2,0,0,1,.923-.881,3.389,3.389,0,0,1,2.851,0,2.2,2.2,0,0,1,.923.881A2.789,2.789,0,0,1,32,20.2v1.719a2.578,2.578,0,0,1-.335,1.363,2.383,2.383,0,0,1-.923.9A3.043,3.043,0,0,1,29.314,24.5Zm0-1.153a1.377,1.377,0,0,0,1.027-.377,1.418,1.418,0,0,0,.356-1.048V20.2a1.529,1.529,0,0,0-.356-1.069,1.367,1.367,0,0,0-1.027-.356,1.455,1.455,0,0,0-1.027.356,1.414,1.414,0,0,0-.377,1.069v1.719a1.306,1.306,0,0,0,1.4,1.426Z" transform="translate(726.813 386.336)" fill="#190e4f"/>
      <path id="Tracé_9" data-name="Tracé 9" d="M29.98,24.391V17.745h1.3v1.279h.314l-.314.294a1.613,1.613,0,0,1,.461-1.237,1.842,1.842,0,0,1,1.3-.44,2.084,2.084,0,0,1,1.593.629,2.378,2.378,0,0,1,.587,1.719v4.424h-1.3V20.135a1.367,1.367,0,0,0-.356-1.006,1.3,1.3,0,0,0-.964-.356,1.233,1.233,0,0,0-.964.377,1.529,1.529,0,0,0-.356,1.069v4.193h-1.3Z" transform="translate(730.487 386.336)" fill="#190e4f"/>
      <path id="Tracé_10" data-name="Tracé 10" d="M35.393,24.517a2.368,2.368,0,0,1-1.635-.545,2.076,2.076,0,0,1,.021-2.956,2.62,2.62,0,0,1,1.74-.545h1.845v-.608a1.033,1.033,0,0,0-.335-.839,1.364,1.364,0,0,0-.964-.294,1.69,1.69,0,0,0-.9.231.826.826,0,0,0-.419.629H33.464a2.042,2.042,0,0,1,.818-1.426,2.94,2.94,0,0,1,1.824-.524,2.736,2.736,0,0,1,1.866.608,2.048,2.048,0,0,1,.692,1.635v4.55H37.385V23.217h-.21l.21-.252a1.421,1.421,0,0,1-.545,1.153,2.3,2.3,0,0,1-1.468.419Zm.377-1.006a1.844,1.844,0,0,0,1.153-.356,1.142,1.142,0,0,0,.461-.923v-.881H35.561a1.083,1.083,0,0,0-.8.273,1.027,1.027,0,0,0-.294.755.989.989,0,0,0,.356.8,1.511,1.511,0,0,0,.964.294Z" transform="translate(733.963 386.336)" fill="#190e4f"/>
      <path id="Tracé_11" data-name="Tracé 11" d="M40.163,25.312a1.744,1.744,0,0,1-1.908-1.887V19.84H36.41V18.666h1.845V16.8h1.3v1.866h2.6V19.84h-2.6v3.585a.605.605,0,0,0,.671.692H42.05v1.2H40.184Z" transform="translate(737.538 385.415)" fill="#190e4f"/>
      <path id="Tracé_12" data-name="Tracé 12" d="M42.585,24.528a3.1,3.1,0,0,1-1.426-.314,2.438,2.438,0,0,1-.943-.9,2.578,2.578,0,0,1-.335-1.363v-1.74a2.578,2.578,0,0,1,.335-1.363,2.307,2.307,0,0,1,.943-.9,3.389,3.389,0,0,1,2.851,0,2.128,2.128,0,0,1,.923.9,2.789,2.789,0,0,1,.335,1.363v1.174H41.159v.566a1.606,1.606,0,0,0,.377,1.132,1.446,1.446,0,0,0,1.069.377,1.719,1.719,0,0,0,.923-.21.9.9,0,0,0,.44-.587h1.3A2,2,0,0,1,44.409,24a3.075,3.075,0,0,1-1.782.5Zm1.426-3.921v-.419a1.7,1.7,0,0,0-.356-1.132,1.348,1.348,0,0,0-1.069-.4,1.273,1.273,0,0,0-1.048.4,1.606,1.606,0,0,0-.377,1.132v.294h2.956l-.1.1Z" transform="translate(741.343 386.325)" fill="#190e4f"/>
      <path id="Tracé_13" data-name="Tracé 13" d="M45.422,25.592a2.118,2.118,0,0,1-1.614-.671A2.7,2.7,0,0,1,43.2,23.1V21.231a2.717,2.717,0,0,1,.608-1.845,2.018,2.018,0,0,1,1.614-.671,1.762,1.762,0,0,1,1.3.461,1.625,1.625,0,0,1,.482,1.237l-.273-.294h.294l-.042-1.551V16.66h1.3v8.827h-1.3V24.208h-.273l.273-.294a1.626,1.626,0,0,1-.482,1.237,1.852,1.852,0,0,1-1.3.461Zm.44-1.153a1.233,1.233,0,0,0,.964-.377,1.51,1.51,0,0,0,.356-1.048v-1.74a1.474,1.474,0,0,0-.356-1.048,1.263,1.263,0,0,0-.964-.377,1.394,1.394,0,0,0-1.006.377,1.438,1.438,0,0,0-.356,1.069v1.74a1.529,1.529,0,0,0,.356,1.069,1.328,1.328,0,0,0,1.006.377Z" transform="translate(744.984 385.262)" fill="#190e4f"/>
      <path id="Tracé_14" data-name="Tracé 14" d="M49.981,24.4V17.756h1.258v1.279h.314l-.4.776a2.493,2.493,0,0,1,.461-1.635,1.77,1.77,0,0,1,1.4-.545,2.15,2.15,0,0,1,1.677.65,2.518,2.518,0,0,1,.629,1.8v.44H53.986v-.335a1.549,1.549,0,0,0-.356-1.09,1.3,1.3,0,0,0-1.006-.377,1.328,1.328,0,0,0-1.006.377,1.586,1.586,0,0,0-.356,1.09v4.193h-1.3Z" transform="translate(752.397 386.325)" fill="#190e4f"/>
      <path id="Tracé_15" data-name="Tracé 15" d="M55.845,24.528a3.1,3.1,0,0,1-1.426-.314,2.438,2.438,0,0,1-.943-.9,2.789,2.789,0,0,1-.335-1.363v-1.74a2.578,2.578,0,0,1,.335-1.363,2.307,2.307,0,0,1,.943-.9,3.389,3.389,0,0,1,2.851,0,2.128,2.128,0,0,1,.923.9,2.789,2.789,0,0,1,.335,1.363v1.174H54.419v.566a1.606,1.606,0,0,0,.377,1.132,1.446,1.446,0,0,0,1.069.377,1.719,1.719,0,0,0,.923-.21.9.9,0,0,0,.44-.587h1.3A1.954,1.954,0,0,1,57.648,24a3.075,3.075,0,0,1-1.782.5Zm1.426-3.921v-.419a1.7,1.7,0,0,0-.356-1.132,1.348,1.348,0,0,0-1.069-.4,1.273,1.273,0,0,0-1.048.4,1.606,1.606,0,0,0-.377,1.132v.294h2.956l-.1.1Z" transform="translate(755.884 386.325)" fill="#190e4f"/>
      <path id="Tracé_16" data-name="Tracé 16" d="M58.6,24.517a2.368,2.368,0,0,1-1.635-.545,2.076,2.076,0,0,1,.021-2.956,2.619,2.619,0,0,1,1.74-.545h1.845v-.608a1.033,1.033,0,0,0-.335-.839,1.364,1.364,0,0,0-.964-.294,1.69,1.69,0,0,0-.9.231.826.826,0,0,0-.419.629H56.674a2.042,2.042,0,0,1,.818-1.426,2.94,2.94,0,0,1,1.824-.524,2.736,2.736,0,0,1,1.866.608,2.048,2.048,0,0,1,.692,1.635v4.55H60.6V23.217h-.21l.21-.252a1.421,1.421,0,0,1-.545,1.153,2.3,2.3,0,0,1-1.468.419Zm.377-1.006a1.844,1.844,0,0,0,1.153-.356,1.142,1.142,0,0,0,.461-.923v-.881H58.771a1.083,1.083,0,0,0-.8.273,1.027,1.027,0,0,0-.294.755.989.989,0,0,0,.356.8,1.511,1.511,0,0,0,.964.294Z" transform="translate(759.415 386.336)" fill="#190e4f"/>
      <path id="Tracé_17" data-name="Tracé 17" d="M62.517,24.528a3.193,3.193,0,0,1-1.447-.314,2.228,2.228,0,0,1-.964-.9,2.629,2.629,0,0,1-.335-1.363v-1.74a2.707,2.707,0,0,1,.335-1.384,2.183,2.183,0,0,1,.964-.881,3.193,3.193,0,0,1,1.447-.314,2.848,2.848,0,0,1,1.929.629,2.241,2.241,0,0,1,.755,1.719H63.9a1.165,1.165,0,0,0-.4-.881,1.463,1.463,0,0,0-.985-.314,1.428,1.428,0,0,0-1.048.377,1.4,1.4,0,0,0-.377,1.048V21.97a1.4,1.4,0,0,0,.377,1.048,1.428,1.428,0,0,0,1.048.377,1.463,1.463,0,0,0,.985-.314,1.165,1.165,0,0,0,.4-.881h1.3a2.241,2.241,0,0,1-.755,1.719,2.848,2.848,0,0,1-1.929.629Z" transform="translate(763.155 386.325)" fill="#190e4f"/>
      <path id="Tracé_18" data-name="Tracé 18" d="M66.683,25.312a1.744,1.744,0,0,1-1.908-1.887V19.84H62.93V18.666h1.845V16.8h1.3v1.866h2.6V19.84h-2.6v3.585a.605.605,0,0,0,.671.692H68.57v1.2H66.7Z" transform="translate(766.62 385.415)" fill="#190e4f"/>
      <path id="Tracé_19" data-name="Tracé 19" d="M71.487,25.477V20.717H69.6v-1.2h1.887V18.453a1.692,1.692,0,0,1,.524-1.321,2.113,2.113,0,0,1,1.447-.482h1.95V17.8H73.479a.785.785,0,0,0-.524.168.6.6,0,0,0-.189.482v1.069h2.642v1.2H72.766v4.759h-1.3Z" transform="translate(773.935 385.251)" fill="#190e4f"/>
      <path id="Tracé_20" data-name="Tracé 20" d="M75.724,24.5a3.043,3.043,0,0,1-1.426-.314,2.129,2.129,0,0,1-.923-.9,2.85,2.85,0,0,1-.335-1.363V20.2a2.578,2.578,0,0,1,.335-1.363,2.2,2.2,0,0,1,.923-.881,3.389,3.389,0,0,1,2.851,0,2.2,2.2,0,0,1,.923.881,2.789,2.789,0,0,1,.335,1.363v1.719a2.578,2.578,0,0,1-.335,1.363,2.383,2.383,0,0,1-.923.9A3.043,3.043,0,0,1,75.724,24.5Zm0-1.153a1.377,1.377,0,0,0,1.027-.377,1.418,1.418,0,0,0,.356-1.048V20.2a1.529,1.529,0,0,0-.356-1.069,1.367,1.367,0,0,0-1.027-.356,1.455,1.455,0,0,0-1.027.356,1.414,1.414,0,0,0-.377,1.069v1.719a1.306,1.306,0,0,0,1.4,1.426Z" transform="translate(777.707 386.336)" fill="#190e4f"/>
      <path id="Tracé_21" data-name="Tracé 21" d="M76.5,24.4V17.756h1.258v1.279h.314l-.4.776a2.493,2.493,0,0,1,.461-1.635,1.77,1.77,0,0,1,1.4-.545,2.15,2.15,0,0,1,1.677.65,2.518,2.518,0,0,1,.629,1.8v.44H80.506v-.335a1.549,1.549,0,0,0-.356-1.09,1.3,1.3,0,0,0-1.006-.377,1.328,1.328,0,0,0-1.006.377,1.586,1.586,0,0,0-.356,1.09v4.193h-1.3Z" transform="translate(781.479 386.325)" fill="#190e4f"/>
      <path id="Tracé_22" data-name="Tracé 22" d="M79.56,24.4V17.756h1.09v.839H80.9l-.189.252a1.274,1.274,0,0,1,.294-.881,1.017,1.017,0,0,1,.818-.335.979.979,0,0,1,.839.419,2.037,2.037,0,0,1,.294,1.153l-.294-.608h.461l-.189.252a1.19,1.19,0,0,1,.314-.881,1.046,1.046,0,0,1,.818-.335,1.111,1.111,0,0,1,.964.461,2.016,2.016,0,0,1,.356,1.237V24.4H84.235V19.37a.976.976,0,0,0-.168-.587.612.612,0,0,0-.923,0,.868.868,0,0,0-.168.566v5.032h-.985V19.349a.932.932,0,0,0-.168-.587.614.614,0,0,0-.482-.21.516.516,0,0,0-.461.21.87.87,0,0,0-.147.566V24.36H79.56Z" transform="translate(784.857 386.325)" fill="#190e4f"/>
      <path id="Tracé_23" data-name="Tracé 23" d="M88.067,25.477V20.717H86.18v-1.2h1.887V18.453a1.692,1.692,0,0,1,.524-1.321,2.113,2.113,0,0,1,1.447-.482h1.95V17.8H90.059a.785.785,0,0,0-.524.168.6.6,0,0,0-.189.482v1.069h2.642v1.2H89.346v4.759h-1.3Z" transform="translate(792.117 385.251)" fill="#190e4f"/>
      <path id="Tracé_24" data-name="Tracé 24" d="M89.761,24.4V17.756h1.258v1.279h.314l-.4.776a2.493,2.493,0,0,1,.461-1.635,1.77,1.77,0,0,1,1.4-.545,2.15,2.15,0,0,1,1.677.65,2.519,2.519,0,0,1,.629,1.8v.44H93.766v-.335a1.549,1.549,0,0,0-.356-1.09A1.3,1.3,0,0,0,92.4,18.72,1.328,1.328,0,0,0,91.4,19.1a1.586,1.586,0,0,0-.356,1.09v4.193h-1.3Z" transform="translate(796.021 386.325)" fill="#190e4f"/>
      <path id="Tracé_25" data-name="Tracé 25" d="M95.063,24.517a2.368,2.368,0,0,1-1.635-.545,2.076,2.076,0,0,1,.021-2.956,2.62,2.62,0,0,1,1.74-.545h1.845v-.608a1.033,1.033,0,0,0-.335-.839,1.364,1.364,0,0,0-.964-.294,1.69,1.69,0,0,0-.9.231.826.826,0,0,0-.419.629H93.134a2.042,2.042,0,0,1,.818-1.426,2.94,2.94,0,0,1,1.824-.524,2.736,2.736,0,0,1,1.866.608,2.048,2.048,0,0,1,.692,1.635v4.55H97.055V23.217h-.21l.21-.252a1.421,1.421,0,0,1-.545,1.153,2.3,2.3,0,0,1-1.468.419Zm.4-1.006a1.844,1.844,0,0,0,1.153-.356,1.142,1.142,0,0,0,.461-.923v-.881H95.252a1.083,1.083,0,0,0-.8.273,1.027,1.027,0,0,0-.294.755.989.989,0,0,0,.356.8,1.511,1.511,0,0,0,.964.294Z" transform="translate(799.398 386.336)" fill="#190e4f"/>
      <path id="Tracé_26" data-name="Tracé 26" d="M96.14,24.4V17.756h1.09v.839h.252l-.189.252a1.274,1.274,0,0,1,.294-.881,1.017,1.017,0,0,1,.818-.335.979.979,0,0,1,.839.419,2.037,2.037,0,0,1,.294,1.153l-.294-.608H99.7l-.189.252a1.19,1.19,0,0,1,.314-.881,1.046,1.046,0,0,1,.818-.335,1.111,1.111,0,0,1,.964.461,2.016,2.016,0,0,1,.356,1.237V24.4h-1.153V19.37a.976.976,0,0,0-.168-.587.612.612,0,0,0-.923,0,.868.868,0,0,0-.168.566v5.032h-.985V19.349a.932.932,0,0,0-.168-.587.614.614,0,0,0-.482-.21.516.516,0,0,0-.461.21.87.87,0,0,0-.147.566V24.36H96.14Z" transform="translate(803.039 386.325)" fill="#190e4f"/>
      <path id="Tracé_27" data-name="Tracé 27" d="M102.255,24.528a3.1,3.1,0,0,1-1.426-.314,2.438,2.438,0,0,1-.943-.9,2.578,2.578,0,0,1-.335-1.363v-1.74a2.578,2.578,0,0,1,.335-1.363,2.307,2.307,0,0,1,.943-.9,3.389,3.389,0,0,1,2.851,0,2.129,2.129,0,0,1,.923.9,2.789,2.789,0,0,1,.335,1.363v1.174h-4.109v.566a1.606,1.606,0,0,0,.377,1.132,1.446,1.446,0,0,0,1.069.377,1.719,1.719,0,0,0,.923-.21.9.9,0,0,0,.44-.587h1.3a2,2,0,0,1-.86,1.342,3.075,3.075,0,0,1-1.782.5Zm1.426-3.921v-.419a1.7,1.7,0,0,0-.356-1.132,1.348,1.348,0,0,0-1.069-.4,1.273,1.273,0,0,0-1.048.4,1.606,1.606,0,0,0-.377,1.132v.294h2.956l-.1.1Z" transform="translate(806.778 386.325)" fill="#190e4f"/>
      <path id="Tracé_28" data-name="Tracé 28" d="M103.617,24.336,102.59,17.69h1.09l.608,4.382a5.857,5.857,0,0,1,.084.671c.021.252.042.44.063.608a4.129,4.129,0,0,1,.084-.608c.042-.252.063-.461.1-.671l.692-4.382h1.09l.671,4.382c.042.21.063.44.1.692s.063.44.084.608a4.361,4.361,0,0,1,.084-.629c.042-.252.063-.461.1-.671l.629-4.382h1.069l-1.069,6.646H106.7l-.65-4.34c-.042-.231-.063-.461-.1-.713s-.063-.461-.084-.608c-.021.147-.063.356-.084.608-.042.252-.063.5-.1.713L105,24.336h-1.384Z" transform="translate(810.112 386.391)" fill="#190e4f"/>
      <path id="Tracé_29" data-name="Tracé 29" d="M108.874,24.5a3.043,3.043,0,0,1-1.426-.314,2.129,2.129,0,0,1-.923-.9,2.85,2.85,0,0,1-.335-1.363V20.2a2.578,2.578,0,0,1,.335-1.363,2.2,2.2,0,0,1,.923-.881,3.389,3.389,0,0,1,2.851,0,2.2,2.2,0,0,1,.923.881,2.789,2.789,0,0,1,.335,1.363v1.719a2.578,2.578,0,0,1-.335,1.363,2.383,2.383,0,0,1-.923.9A3.043,3.043,0,0,1,108.874,24.5Zm0-1.153a1.377,1.377,0,0,0,1.027-.377,1.418,1.418,0,0,0,.356-1.048V20.2a1.529,1.529,0,0,0-.356-1.069,1.367,1.367,0,0,0-1.027-.356,1.455,1.455,0,0,0-1.027.356,1.414,1.414,0,0,0-.377,1.069v1.719a1.306,1.306,0,0,0,1.4,1.426Z" transform="translate(814.06 386.336)" fill="#190e4f"/>
      <path id="Tracé_30" data-name="Tracé 30" d="M109.651,24.4V17.756h1.258v1.279h.314l-.4.776a2.493,2.493,0,0,1,.461-1.635,1.77,1.77,0,0,1,1.4-.545,2.15,2.15,0,0,1,1.677.65,2.519,2.519,0,0,1,.629,1.8v.44h-1.342v-.335a1.549,1.549,0,0,0-.356-1.09,1.3,1.3,0,0,0-1.006-.377,1.328,1.328,0,0,0-1.006.377,1.585,1.585,0,0,0-.356,1.09v4.193h-1.3Z" transform="translate(817.832 386.325)" fill="#190e4f"/>
      <path id="Tracé_31" data-name="Tracé 31" d="M112.87,25.477V16.65h1.3v4.843h1.174l1.761-2.663h1.468l-2.118,3.187,2.16,3.459h-1.489l-1.782-2.851H114.17v2.851h-1.3Z" transform="translate(821.385 385.251)" fill="#190e4f"/>
      <path id="Tracé_32" data-name="Tracé 32" d="M0,28.492V.02H26.25V5.744H5.787v5.619H22.266v5.766H5.787V28.471H0Z" transform="translate(697.61 367.014)" fill="#190e4f"/>
      <path id="Tracé_33" data-name="Tracé 33" d="M20.673,28.5a5.418,5.418,0,0,1-2.872-.776,5.678,5.678,0,0,1-2.055-2.055A5.559,5.559,0,0,1,14.97,22.8V5.713a5.418,5.418,0,0,1,.776-2.872A5.844,5.844,0,0,1,17.8.786,5.559,5.559,0,0,1,20.673.01H37.76a5.324,5.324,0,0,1,2.83.776A6.082,6.082,0,0,1,42.666,2.84a5.382,5.382,0,0,1,.8,2.872V22.8a5.435,5.435,0,0,1-.8,2.872,5.9,5.9,0,0,1-2.076,2.055,5.324,5.324,0,0,1-2.83.776H20.673Zm.252-5.745H37.446s.147,0,.168-.063a.238.238,0,0,0,.063-.168V6.006s0-.147-.063-.168a.238.238,0,0,0-.168-.063H20.924s-.147,0-.168.063a.238.238,0,0,0-.063.168V22.528s0,.147.063.168a.238.238,0,0,0,.168.063Z" transform="translate(714.026 367.003)" fill="#190e4f"/>
      <path id="Tracé_34" data-name="Tracé 34" d="M32.051,28.47V.04H54.778a5.418,5.418,0,0,1,2.872.776,5.963,5.963,0,0,1,2.076,2.076,5.416,5.416,0,0,1,.8,2.851v7.506a5.343,5.343,0,0,1-.8,2.83,5.9,5.9,0,0,1-2.076,2.055,5.366,5.366,0,0,1-2.872.776l-17.046.042V28.47h-5.7Zm5.933-15.305H54.506s.147,0,.168-.063a.19.19,0,0,0,.063-.147v-7s0-.147-.063-.168a.238.238,0,0,0-.168-.063H37.984s-.147,0-.168.063a.238.238,0,0,0-.063.168v7a.2.2,0,0,0,.063.147A.238.238,0,0,0,37.984,13.165ZM54.443,28.47,46.014,18.427h7.464l6.961,8.261V28.47H54.422Z" transform="translate(732.735 367.036)" fill="#190e4f"/>
      <path id="Tracé_35" data-name="Tracé 35" d="M49.02,28.492V.02h6.059l9.959,11.909L74.955.02h6.08V28.492H75.312V8.511L65.038,20.8,54.723,8.532V28.45h-5.7Z" transform="translate(751.366 367.014)" fill="#190e4f"/>
      <path id="Tracé_36" data-name="Tracé 36" d="M102,28.514V0h5.7V22.769h22.769v5.724H102Z" transform="translate(809.465 366.992)" fill="#190e4f"/>
      <path id="Tracé_37" data-name="Tracé 37" d="M127.094,28.292h-53a6.567,6.567,0,0,1-6.751-6.374V6.4A6.581,6.581,0,0,1,74.091.03h53A6.567,6.567,0,0,1,133.845,6.4V21.919A6.581,6.581,0,0,1,127.094,28.292Zm-53-22.539a.686.686,0,0,0-.713.671V21.94a.7.7,0,0,0,.713.671h53a.686.686,0,0,0,.713-.671V6.4a.7.7,0,0,0-.713-.671h-53Z" transform="translate(771.456 367.025)" fill="#6e57ff"/>
    </g>
  </g>
</svg>
