<svg xmlns="http://www.w3.org/2000/svg" xmlns:xlink="http://www.w3.org/1999/xlink" width="299" height="85" viewBox="0 0 299 85">
  <defs>
    <clipPath id="clip-formol-simple-logo">
      <rect width="299" height="85"/>
    </clipPath>
  </defs>
  <g id="formol-simple-logo" clip-path="url(#clip-formol-simple-logo)">
    <path id="Tracé_32" data-name="Tracé 32" d="M0,28.492V.02H26.25V5.744H5.787v5.619H22.266v5.766H5.787V28.471H0Z" transform="translate(28.493 28.515)" fill="#190e4f"/>
    <path id="Tracé_33" data-name="Tracé 33" d="M20.673,28.5a5.418,5.418,0,0,1-2.872-.776,5.678,5.678,0,0,1-2.055-2.055A5.559,5.559,0,0,1,14.97,22.8V5.713a5.418,5.418,0,0,1,.776-2.872A5.844,5.844,0,0,1,17.8.786,5.559,5.559,0,0,1,20.673.01H37.76a5.324,5.324,0,0,1,2.83.776A6.082,6.082,0,0,1,42.666,2.84a5.382,5.382,0,0,1,.8,2.872V22.8a5.435,5.435,0,0,1-.8,2.872,5.9,5.9,0,0,1-2.076,2.055,5.324,5.324,0,0,1-2.83.776H20.673Zm.252-5.745H37.446s.147,0,.168-.063a.238.238,0,0,0,.063-.168V6.006s0-.147-.063-.168a.238.238,0,0,0-.168-.063H20.924s-.147,0-.168.063a.238.238,0,0,0-.063.168V22.528s0,.147.063.168a.238.238,0,0,0,.168.063Z" transform="translate(44.909 28.504)" fill="#190e4f"/>
    <path id="Tracé_34" data-name="Tracé 34" d="M32.051,28.47V.04H54.778a5.418,5.418,0,0,1,2.872.776,5.963,5.963,0,0,1,2.076,2.076,5.416,5.416,0,0,1,.8,2.851v7.506a5.343,5.343,0,0,1-.8,2.83,5.9,5.9,0,0,1-2.076,2.055,5.366,5.366,0,0,1-2.872.776l-17.046.042V28.47h-5.7Zm5.933-15.305H54.506s.147,0,.168-.063a.19.19,0,0,0,.063-.147v-7s0-.147-.063-.168a.238.238,0,0,0-.168-.063H37.984s-.147,0-.168.063a.238.238,0,0,0-.063.168v7a.2.2,0,0,0,.063.147A.238.238,0,0,0,37.984,13.165ZM54.443,28.47,46.014,18.427h7.464l6.961,8.261V28.47H54.422Z" transform="translate(63.618 28.537)" fill="#190e4f"/>
    <path id="Tracé_35" data-name="Tracé 35" d="M49.02,28.492V.02h6.059l9.959,11.909L74.955.02h6.08V28.492H75.312V8.511L65.038,20.8,54.723,8.532V28.45h-5.7Z" transform="translate(82.249 28.515)" fill="#190e4f"/>
    <path id="Tracé_36" data-name="Tracé 36" d="M102,28.514V0h5.7V22.769h22.769v5.724H102Z" transform="translate(140.348 28.493)" fill="#190e4f"/>
    <path id="Tracé_37" data-name="Tracé 37" d="M127.094,28.292h-53a6.567,6.567,0,0,1-6.751-6.374V6.4A6.581,6.581,0,0,1,74.091.03h53A6.567,6.567,0,0,1,133.845,6.4V21.919A6.581,6.581,0,0,1,127.094,28.292Zm-53-22.539a.686.686,0,0,0-.713.671V21.94a.7.7,0,0,0,.713.671h53a.686.686,0,0,0,.713-.671V6.4a.7.7,0,0,0-.713-.671h-53Z" transform="translate(102.339 28.526)" fill="#6e57ff"/>
  </g>
</svg>
